#!OML:ASF H:\Dans Jumps\Project 1\Capture day 1\Session 1\subject.ASF
:FULLY-SPECIFIED
:DEGREES
516
root 0.455776 15.1371 -15.7958 23.8743 0.197163 -1.19722
lowerback 20.733 0.196698 -0.310264
upperback 9.14182 0.280723 2.27514
thorax -1.69725 0.0791022 2.53697
lowerneck -16.1325 0.519592 -0.860323
upperneck 8.72788 1.05831 -1.37749
head 5.25186 0.385208 -0.199461
rclavicle 4.17448e-015 -7.7526e-015
rhumerus -20.2082 -3.02628 -82.2962
rradius 36.4107
rwrist 20.7594
rhand -19.011 -27.1255
rfingers 7.12502
rthumb 7.29451 -56.9798
lclavicle 4.17448e-015 -7.7526e-015
lhumerus -18.3507 -10.33 89.9947
lradius 24.5431
lwrist 16.0302
lhand -26.3871 -3.39461
lfingers 7.12502
lthumb 0.171836 26.5851
rfemur -67.1403 -3.91096 22.7066
rtibia 71.5685
rfoot -29.2551 -11.9501
rtoes 1.51382
lfemur -67.1854 6.07591 -21.4124
ltibia 70.2073
lfoot -25.0301 14.6123
ltoes -4.41949
517
root 0.449373 15.1411 -15.743 23.9286 0.24113 -1.19562
lowerback 20.6581 0.187407 -0.31022
upperback 9.00791 0.271313 2.28389
thorax -1.80378 0.0763051 2.54798
lowerneck -16.2352 0.521951 -0.880166
upperneck 8.79385 1.06523 -1.35276
head 5.28899 0.388656 -0.187559
rclavicle 1.78906e-015 -3.97569e-016
rhumerus -20.0092 -3.05309 -82.3089
rradius 36.4388
rwrist 20.7194
rhand -19.0883 -27.1453
rfingers 7.12502
rthumb 7.21992 -57.0021
lclavicle 1.78906e-015 -3.97569e-016
lhumerus -18.0123 -10.0535 89.8846
lradius 24.5733
lwrist 15.9789
lhand -26.5536 -3.49168
lfingers 7.12502
lthumb 0.011103 26.4881
rfemur -66.9559 -3.93484 22.7377
rtibia 71.5678
rfoot -29.3653 -12.0494
rtoes 1.58544
lfemur -67.0166 6.11738 -21.39
ltibia 70.1912
lfoot -25.0037 14.5492
ltoes -4.34761
518
root 0.442918 15.1477 -15.6873 23.9845 0.283438 -1.19567
lowerback 20.5659 0.177863 -0.31256
upperback 8.86693 0.261162 2.29388
thorax -1.90903 0.0731241 2.56176
lowerneck -16.3542 0.525005 -0.903613
upperneck 8.88585 1.07435 -1.32652
head 5.33697 0.392857 -0.174315
rclavicle 2.18663e-015 1.43125e-014
rhumerus -19.7989 -3.06688 -82.3261
rradius 36.456
rwrist 20.6714
rhand -19.1746 -27.1797
rfingers 7.12502
rthumb 7.13661 -57.0394
lclavicle 2.18663e-015 1.43125e-014
lhumerus -17.6707 -9.76209 89.7816
lradius 24.5975
lwrist 15.9284
lhand -26.7186 -3.58994
lfingers 7.12502
lthumb -0.14827 26.3898
rfemur -66.7438 -3.95512 22.7659
rtibia 71.5312
rfoot -29.4194 -12.1165
rtoes 1.68349
lfemur -66.8182 6.1569 -21.3604
ltibia 70.1413
lfoot -24.9357 14.4437
ltoes -4.1575
519
root 0.436319 15.1571 -15.6287 24.0372 0.326292 -1.19439
lowerback 20.4573 0.168884 -0.319273
upperback 8.72067 0.250972 2.30553
thorax -2.01146 0.0698468 2.57973
lowerneck -16.4868 0.524454 -0.935376
upperneck 9.00129 1.08015 -1.29312
head 5.39449 0.395406 -0.157692
rclavicle 9.74045e-015 2.24627e-014
rhumerus -19.5753 -3.07685 -82.3458
rradius 36.4595
rwrist 20.6229
rhand -19.2744 -27.2217
rfingers 7.12502
rthumb 7.04024 -57.0846
lclavicle 9.74045e-015 2.24627e-014
lhumerus -17.3245 -9.47085 89.688
lradius 24.6124
lwrist 15.8849
lhand -26.8904 -3.68726
lfingers 7.12502
lthumb -0.314231 26.2923
rfemur -66.4958 -3.96907 22.7854
rtibia 71.457
rfoot -29.4172 -12.1646
rtoes 1.8025
lfemur -66.5839 6.19178 -21.3251
ltibia 70.056
lfoot -24.8387 14.3121
ltoes -3.87067
520
root 0.429633 15.1694 -15.5668 24.08 0.369129 -1.19359
lowerback 20.3369 0.161589 -0.32765
upperback 8.57012 0.242724 2.31981
thorax -2.11245 0.0674958 2.60099
lowerneck -16.6331 0.518645 -0.978358
upperneck 9.14176 1.08104 -1.2521
head 5.46207 0.395448 -0.137222
rclavicle 5.36719e-015 6.55989e-015
rhumerus -19.34 -3.0929 -82.3651
rradius 36.4492
rwrist 20.5818
rhand -19.3747 -27.2688
rfingers 7.12502
rthumb 6.94343 -57.1349
lclavicle 5.36719e-015 6.55989e-015
lhumerus -16.9741 -9.18063 89.606
lradius 24.6187
lwrist 15.8443
lhand -27.0594 -3.80455
lfingers 7.12502
lthumb -0.47743 26.1747
rfemur -66.2018 -3.97525 22.7967
rtibia 71.3421
rfoot -29.3717 -12.1997
rtoes 1.96947
lfemur -66.3039 6.22249 -21.2814
ltibia 69.9344
lfoot -24.7344 14.1778
ltoes -3.57215
521
root 0.422648 15.1852 -15.5017 24.1098 0.414654 -1.19075
lowerback 20.2079 0.1568 -0.33856
upperback 8.41578 0.237338 2.33608
thorax -2.21295 0.066539 2.62515
lowerneck -16.7773 0.504771 -1.03631
upperneck 9.28962 1.07288 -1.19793
head 5.53156 0.391491 -0.111004
rclavicle -1.03368e-014 3.97569e-016
rhumerus -19.0956 -3.12412 -82.384
rradius 36.4268
rwrist 20.556
rhand -19.4554 -27.3244
rfingers 7.12502
rthumb 6.86553 -57.1931
lclavicle -1.03368e-014 3.97569e-016
lhumerus -16.6197 -8.90334 89.5356
lradius 24.6163
lwrist 15.8022
lhand -27.2429 -3.95904
lfingers 7.12502
lthumb -0.654716 26.0197
rfemur -65.8557 -3.97614 22.8001
rtibia 71.1829
rfoot -29.2806 -12.2466
rtoes 2.16768
lfemur -65.9726 6.24637 -21.2301
ltibia 69.7719
lfoot -24.6374 14.0685
ltoes -3.378
522
root 0.415507 15.2046 -15.4332 24.1214 0.459793 -1.18881
lowerback 20.0716 0.156108 -0.348381
upperback 8.26009 0.23743 2.35362
thorax -2.31124 0.068306 2.64883
lowerneck -16.9196 0.486853 -1.10245
upperneck 9.44358 1.0607 -1.13945
head 5.60271 0.385587 -0.0824506
rclavicle -7.7526e-015 -9.74045e-015
rhumerus -18.8448 -3.1783 -82.4015
rradius 36.3966
rwrist 20.5564
rhand -19.5298 -27.3696
rfingers 7.12502
rthumb 6.79371 -57.2406
lclavicle -7.7526e-015 -9.74045e-015
lhumerus -16.2652 -8.64495 89.477
lradius 24.6144
lwrist 15.7577
lhand -27.4233 -4.1288
lfingers 7.12502
lthumb -0.828877 25.8493
rfemur -65.4482 -3.97032 22.798
rtibia 70.9758
rfoot -29.1568 -12.3101
rtoes 2.37576
lfemur -65.5808 6.26739 -21.1691
ltibia 69.5667
lfoot -24.5699 13.9983
ltoes -3.37661
523
root 0.408207 15.2283 -15.361 24.1105 0.50509 -1.18652
lowerback 19.9264 0.160524 -0.353528
upperback 8.10763 0.244779 2.37075
thorax -2.40155 0.0736823 2.66781
lowerneck -17.052 0.461548 -1.17657
upperneck 9.58588 1.03949 -1.07588
head 5.66857 0.375557 -0.0518877
rclavicle 6.16232e-015 1.0138e-014
rhumerus -18.5866 -3.26418 -82.4178
rradius 36.362
rwrist 20.5791
rhand -19.5884 -27.4064
rfingers 7.12502
rthumb 6.73716 -57.2792
lclavicle 6.16232e-015 1.0138e-014
lhumerus -15.9034 -8.41073 89.4315
lradius 24.6089
lwrist 15.7028
lhand -27.6075 -4.31635
lfingers 7.12502
lthumb -1.00679 25.661
rfemur -64.9683 -3.96015 22.7898
rtibia 70.7148
rfoot -29.0063 -12.3905
rtoes 2.5953
lfemur -65.1153 6.28457 -21.0985
ltibia 69.3109
lfoot -24.5393 13.9735
ltoes -3.62114
